<?xml version="1.0" standalone="no"?>
<!DOCTYPE svg PUBLIC "-//W3C//DTD SVG 20010904//EN"
 "http://www.w3.org/TR/2001/REC-SVG-20010904/DTD/svg10.dtd">
<svg version="1.0" xmlns="http://www.w3.org/2000/svg"
 width="1141.000000pt" height="1280.000000pt" viewBox="0 0 1141.000000 1280.000000"
 preserveAspectRatio="xMidYMid meet">
<g transform="translate(0.000000,1280.000000) scale(0.100000,-0.100000)"
fill="#000000" stroke="none">
<path d="M9981 12777 c-60 -30 -132 -102 -221 -222 -43 -57 -111 -132 -158
-174 -46 -40 -95 -92 -110 -116 -15 -23 -33 -40 -39 -38 -15 5 -31 -31 -67
-145 -32 -102 -53 -137 -73 -121 -7 7 -15 10 -16 8 -2 -2 -16 -25 -31 -51 -29
-53 -51 -68 -93 -68 -42 0 -141 -39 -314 -123 -84 -41 -178 -85 -206 -97 -47
-20 -69 -40 -44 -40 21 0 -179 -190 -232 -219 -68 -39 -79 -53 -128 -175 -41
-101 -37 -127 11 -81 43 41 37 22 -17 -53 -26 -37 -61 -104 -78 -151 -30 -83
-148 -283 -221 -374 -83 -105 -114 -189 -46 -127 18 16 35 30 37 30 2 0 -11
-33 -30 -72 -18 -40 -40 -100 -49 -134 -9 -33 -29 -93 -46 -133 -21 -51 -34
-109 -45 -194 -26 -209 -36 -260 -65 -327 -15 -36 -30 -77 -34 -92 -10 -44 15
-34 52 19 37 54 37 53 16 -58 -10 -58 -26 -101 -48 -139 -52 -85 -106 -197
-99 -204 4 -4 24 10 45 31 21 20 38 35 38 32 0 -29 -45 -127 -81 -179 -88
-125 -115 -197 -53 -139 l26 24 -20 -40 c-11 -22 -29 -75 -41 -118 -12 -43
-33 -102 -48 -130 -62 -124 -81 -213 -38 -177 22 18 18 5 -10 -40 -31 -50 -51
-62 -149 -95 -104 -35 -208 -37 -284 -6 -29 11 -67 21 -85 21 -18 0 -57 7 -87
15 -71 19 -73 19 -65 -6 7 -21 5 -22 -62 -17 -57 4 -98 18 -239 77 -93 40
-189 84 -213 97 -59 33 -93 30 -59 -4 16 -16 7 -15 -39 3 -58 22 -148 35 -239
35 -89 0 -184 17 -277 49 -92 32 -408 114 -414 107 -3 -3 0 -13 8 -22 13 -16
8 -17 -71 -10 -47 4 -143 23 -215 42 -152 41 -291 64 -391 64 -125 0 -278 51
-367 122 -45 35 -59 29 -34 -14 10 -17 16 -32 15 -34 -2 -1 -47 13 -101 31
-71 25 -97 31 -97 21 0 -8 10 -20 22 -29 l23 -15 -28 -7 c-16 -4 -68 -2 -116
4 -48 6 -130 11 -182 11 -168 1 -259 18 -619 118 -142 40 -176 46 -178 35 -3
-11 -12 -13 -35 -9 -18 3 -135 11 -262 16 -126 5 -243 11 -260 12 -20 2 -29
-1 -27 -9 1 -10 -21 -13 -87 -13 -53 0 -123 -8 -173 -19 -73 -17 -199 -36
-407 -59 -74 -8 -90 -26 -34 -37 l38 -8 -33 -14 c-18 -7 -88 -18 -155 -23 -67
-6 -146 -16 -176 -23 -58 -13 -81 -37 -37 -37 14 0 26 -4 26 -9 0 -13 -35 -21
-120 -30 -85 -9 -170 -37 -170 -57 0 -7 10 -14 23 -16 13 -3 -1 -9 -38 -16
-33 -7 -80 -17 -105 -23 -90 -20 -184 -97 -438 -362 -15 -16 -59 -59 -98 -95
-54 -52 -73 -77 -83 -112 -15 -50 -70 -163 -138 -284 l-45 -79 22 -17 23 -17
-21 -64 c-32 -96 -41 -175 -45 -381 -2 -142 0 -188 9 -188 7 0 14 6 17 13 2 6
8 8 13 4 5 -5 8 -113 6 -240 -3 -213 -1 -243 22 -368 31 -166 46 -215 66 -212
11 2 23 -19 39 -65 34 -98 106 -244 131 -267 21 -19 22 -19 36 -1 23 33 27 11
15 -96 -20 -173 -41 -289 -72 -383 -31 -93 -64 -278 -55 -302 3 -8 10 -11 16
-8 18 11 19 -205 0 -340 -24 -176 -32 -212 -60 -270 -34 -70 -65 -224 -48
-240 7 -7 12 -6 15 2 7 21 23 15 23 -8 0 -11 11 -39 24 -62 33 -57 46 -137 46
-288 0 -88 -5 -140 -15 -170 -9 -24 -23 -74 -31 -111 -15 -65 -13 -94 7 -83 5
4 6 -8 1 -27 -13 -59 -5 -111 29 -206 28 -75 37 -92 52 -88 21 5 21 -8 6 -105
-15 -90 1 -193 41 -264 27 -49 78 -196 139 -401 26 -91 61 -302 61 -374 0 -32
18 -50 30 -30 10 17 13 6 41 -147 16 -89 28 -133 36 -133 7 0 13 6 14 13 1 19
49 -85 49 -107 0 -11 24 -72 54 -136 68 -147 75 -173 86 -328 11 -175 22 -199
122 -255 48 -28 59 -47 73 -132 14 -80 63 -153 125 -185 53 -27 235 -71 322
-77 96 -7 102 1 69 95 -12 35 -20 66 -17 69 2 3 27 -2 55 -12 28 -9 63 -15 78
-13 23 2 29 8 31 34 2 24 -13 56 -69 145 -39 63 -85 128 -100 144 -20 21 -29
41 -29 64 0 53 -21 110 -53 144 -51 55 -73 88 -164 252 -72 129 -92 174 -103
230 -16 85 -63 224 -97 285 -29 54 -87 301 -143 610 -24 135 -47 579 -35 686
l8 69 17 -100 c10 -55 25 -131 34 -170 10 -38 21 -133 27 -210 12 -170 17
-205 29 -205 5 0 13 12 16 26 14 56 35 -17 90 -321 86 -479 177 -788 283 -964
24 -39 45 -90 51 -121 14 -75 58 -160 98 -186 57 -39 262 -92 371 -97 71 -3
83 14 57 80 -10 26 -21 58 -23 70 -5 22 -5 22 40 7 25 -8 63 -14 84 -12 34 3
38 6 41 33 2 22 -8 47 -36 90 -22 33 -61 93 -86 134 -26 40 -56 75 -66 78 -11
3 -20 12 -20 20 0 29 -52 118 -149 258 -125 178 -141 211 -181 375 -19 74 -41
153 -51 175 -49 114 -60 1250 -13 1427 15 59 24 74 80 129 35 35 64 58 64 51
0 -7 4 -12 9 -12 22 0 112 83 155 144 47 65 61 80 50 51 -14 -36 29 -10 82 50
32 36 78 77 102 91 25 15 62 42 83 61 l39 35 -6 -31 c-7 -35 5 -41 24 -10 32
51 70 137 77 173 3 21 11 50 17 65 l10 26 9 -23 c11 -29 29 -20 29 14 0 37 24
86 59 119 l31 29 33 -19 c17 -10 74 -49 125 -87 84 -62 112 -78 112 -63 0 3
-9 23 -20 45 -27 54 -26 56 18 22 54 -43 159 -93 297 -142 136 -48 352 -148
401 -185 44 -34 50 -20 11 28 -25 32 -28 39 -12 33 57 -24 115 -36 214 -45
130 -12 155 -22 239 -90 35 -28 68 -49 73 -45 6 3 -1 25 -16 50 -14 24 -24 44
-21 44 2 0 44 -11 93 -24 130 -34 221 -73 287 -122 54 -40 86 -54 86 -38 0 3
-14 24 -31 45 -17 21 -28 39 -25 39 18 0 125 -55 166 -85 48 -35 186 -80 196
-64 2 4 -12 19 -33 33 -60 41 -18 30 78 -21 80 -42 122 -52 91 -21 -24 24 -11
29 21 9 38 -23 49 -19 41 15 -5 21 -3 24 21 24 26 0 27 -1 22 -47 -2 -27 -8
-59 -12 -72 -8 -22 -6 -23 19 -17 l26 7 -16 -38 c-33 -73 -74 -205 -67 -216 4
-7 28 13 61 49 l54 59 -5 -51 c-3 -28 -22 -99 -41 -158 -27 -80 -36 -122 -35
-169 2 -117 20 -150 51 -100 l17 28 1 -30 c2 -43 24 -100 40 -100 7 0 19 16
26 35 12 33 13 33 13 8 1 -41 19 -43 42 -3 12 20 23 35 24 33 2 -2 -1 -23 -5
-48 -5 -25 -9 -75 -10 -112 0 -37 -4 -78 -10 -92 -18 -49 9 -37 37 16 l28 53
3 -114 c2 -80 -2 -129 -13 -166 -18 -63 -18 -65 -5 -65 5 0 26 30 45 68 l36
67 -6 -50 c-3 -27 -8 -62 -11 -77 -11 -47 9 -31 48 40 l37 67 2 -45 c2 -25 1
-64 0 -87 -3 -49 10 -55 40 -20 l18 22 1 -46 c0 -25 -12 -103 -26 -174 -20
-97 -23 -129 -14 -135 10 -6 9 -32 -1 -116 -17 -134 -17 -130 -1 -126 16 3 12
-34 -19 -163 -20 -87 -25 -175 -9 -175 6 0 10 -25 10 -55 0 -66 -41 -393 -76
-610 -29 -177 -27 -229 8 -322 17 -46 22 -81 22 -165 1 -99 3 -111 33 -170 17
-34 37 -92 43 -127 14 -78 50 -152 85 -175 36 -24 215 -82 317 -103 83 -16 89
-16 105 0 16 16 16 20 -1 74 -9 32 -20 66 -22 75 -5 16 -1 16 52 -2 68 -24 97
-25 114 -5 21 26 3 67 -117 263 -37 60 -45 82 -47 130 -2 41 -19 99 -61 207
l-58 150 -4 179 c-9 358 53 1035 117 1286 13 50 20 111 20 170 0 61 5 100 15
120 8 16 27 96 42 177 28 154 63 256 85 248 8 -3 34 36 71 105 66 124 76 130
133 77 33 -30 35 -36 40 -112 7 -104 11 -116 30 -91 12 18 13 1 9 -135 -2 -84
-11 -180 -19 -212 -13 -54 -8 -76 13 -62 6 3 8 -8 6 -27 -2 -18 -7 -143 -10
-278 -6 -248 -10 -289 -39 -415 -20 -91 -33 -255 -19 -255 6 0 12 -54 16 -137
3 -96 11 -162 26 -218 12 -44 26 -104 31 -134 5 -30 14 -57 19 -60 5 -3 13
-54 19 -112 11 -116 27 -157 86 -228 20 -24 36 -51 36 -60 0 -32 51 -120 90
-155 51 -46 85 -54 270 -67 163 -12 204 -7 217 28 4 9 0 28 -9 42 -8 14 -25
43 -37 63 l-22 37 75 -6 c80 -6 106 3 106 38 0 27 -190 240 -238 267 -30 17
-42 30 -42 46 0 28 -45 97 -82 125 -29 23 -122 192 -138 250 -18 69 -42 442
-36 556 10 185 37 456 52 530 7 39 26 93 40 120 23 43 28 67 34 175 9 147 15
173 40 165 14 -4 20 4 29 42 7 26 28 72 47 103 31 51 104 243 104 275 0 8 5
17 11 21 7 4 10 -2 8 -17 -8 -59 17 -22 91 131 60 126 83 185 96 252 9 48 21
85 25 82 14 -8 78 48 94 83 11 23 14 51 10 104 l-5 73 23 -22 c13 -12 27 -22
31 -22 5 0 6 39 2 88 -13 177 -10 224 15 272 l24 45 3 -37 c2 -21 6 -38 11
-38 4 0 19 26 35 57 21 43 30 53 37 42 5 -8 9 -22 9 -31 0 -10 5 -18 10 -18 6
0 10 23 10 50 0 66 21 115 58 134 16 8 53 34 82 57 l54 42 -38 -67 c-22 -39
-34 -72 -29 -77 5 -5 53 35 112 94 58 56 101 93 96 82 -14 -36 -18 -65 -8 -65
20 0 164 134 194 181 17 27 33 49 36 49 3 0 3 -43 1 -95 -3 -52 -2 -95 1 -95
3 1 33 51 66 112 82 152 81 150 93 108 7 -27 5 -46 -9 -85 -22 -59 -22 -55 -6
-55 14 0 49 50 94 135 l32 60 1 -53 c0 -75 19 -63 47 29 19 63 29 80 70 116
26 23 48 41 50 39 2 -2 -1 -15 -6 -29 -14 -36 4 -45 29 -15 11 13 37 49 57 82
l37 58 9 -28 c4 -16 5 -48 3 -71 -3 -24 -2 -43 3 -43 10 0 47 95 57 144 3 20
10 36 14 36 11 0 46 -49 54 -77 17 -53 32 -11 39 105 l2 44 35 -24 c19 -13 44
-38 55 -55 11 -18 24 -32 29 -33 9 0 1 86 -11 117 -5 14 0 13 31 -6 20 -13 40
-20 44 -17 3 4 -1 27 -10 52 -17 49 -14 52 22 24 23 -18 50 -26 50 -16 0 3
-10 21 -21 41 -23 39 -23 93 1 150 l13 30 10 -42 c14 -60 33 -55 40 12 5 49
41 135 57 135 3 0 12 -16 19 -35 7 -19 19 -35 27 -35 13 0 17 25 18 133 1 15
3 27 6 27 3 0 23 -14 44 -30 43 -33 68 -30 39 4 -47 53 -67 105 -57 153 l6 29
29 -27 c18 -17 51 -32 84 -40 55 -12 84 -6 53 12 -50 28 -78 62 -78 94 0 47
15 51 40 10 12 -19 25 -35 29 -35 4 0 6 60 5 133 l-3 132 24 -30 c43 -52 42
-36 -1 195 l-7 35 34 -32 c42 -38 136 -85 145 -71 4 5 -13 30 -37 54 -39 40
-44 50 -49 104 -3 33 -4 60 -1 60 3 0 20 -14 38 -32 18 -17 36 -28 40 -24 6 6
-13 118 -33 194 -6 21 -5 22 20 11 14 -7 29 -9 33 -6 3 4 -6 38 -21 76 -15 38
-30 86 -33 107 l-6 39 41 -37 c38 -34 62 -47 62 -33 0 2 -9 19 -20 37 -11 18
-20 47 -20 63 0 17 -12 57 -25 90 -14 33 -25 61 -25 61 0 1 33 -9 73 -21 41
-14 76 -20 81 -15 5 5 -11 27 -40 53 l-48 44 67 13 c44 8 67 17 67 26 0 8 -6
14 -14 14 -8 0 -27 5 -43 11 -27 10 -27 11 -7 19 11 5 46 11 77 15 32 4 57 10
57 14 0 4 -26 20 -57 35 -32 15 -67 39 -77 53 l-19 26 36 -7 c45 -8 50 9 12
44 -14 13 -25 27 -25 30 0 4 11 5 25 2 29 -5 33 12 9 39 -23 26 -43 88 -43
134 l1 40 14 -32 c22 -50 38 -42 29 15 -7 48 -8 342 -1 349 2 3 14 -14 27 -36
12 -23 26 -41 31 -41 13 0 10 30 -14 136 -16 74 -21 135 -22 241 l-1 142 22
-27 c11 -15 25 -24 29 -19 4 4 -3 51 -16 105 -25 102 -28 216 -12 437 l7 90
18 -52 c10 -29 23 -53 28 -53 5 0 8 49 6 113 -1 61 -1 193 1 291 l2 179 24
-22 c14 -13 29 -20 34 -17 13 8 -19 140 -64 269 -61 177 -84 281 -84 391 0 85
2 97 15 86 27 -22 31 -1 17 87 -17 106 -7 156 39 202 29 29 32 30 58 17 15 -8
33 -22 40 -30 20 -24 41 -19 41 9 0 29 9 30 65 11 22 -8 57 -17 79 -21 36 -7
38 -7 31 15 -7 23 -7 23 56 16 167 -17 216 -19 224 -6 4 7 2 16 -6 21 -18 11
-15 13 76 42 118 38 135 40 216 21 106 -24 185 -63 257 -127 93 -84 106 -89
229 -85 96 3 106 5 124 27 11 14 19 39 19 62 0 30 4 39 18 39 28 0 80 37 96
68 12 24 13 56 6 198 -9 182 -19 225 -69 297 -49 70 -102 114 -183 151 -42 19
-161 85 -265 147 -103 61 -223 132 -266 158 -44 25 -120 84 -170 129 -75 69
-113 94 -207 140 -63 30 -116 56 -117 57 -1 0 13 75 32 167 23 116 44 190 69
246 20 44 36 82 36 86 0 4 24 68 54 144 60 152 82 231 73 256 -10 25 -60 19
-105 -13 -44 -33 -159 -187 -217 -293 -20 -38 -41 -68 -46 -68 -4 0 -16 -26
-25 -57 -26 -90 -34 -103 -128 -209 -21 -25 -41 -43 -42 -41 -2 2 7 30 20 63
14 32 43 129 66 214 38 142 46 162 99 241 32 47 66 108 77 134 l18 48 -23 18
c-30 24 -46 24 -100 -4z"/>
</g>
</svg>
