<svg width="490" height="490" xmlns="http://www.w3.org/2000/svg">

 <g>
  <title>background</title>
  <rect fill="none" id="canvas_background" height="402" width="582" y="-1" x="-1"/>
 </g>
 <g>
  <title>Layer 1</title>
  <path id="svg_1" d="m281,279a153,153 0 1 0 -2,2l170,170m-91,-116l110,109l-26,26l-110,-110" stroke-linecap="round" stroke-width="36" stroke="#333" fill="none"/>
  <g stroke="null" id="svg_7">
   <g id="svg_5" fill="#333" transform="matrix(0.01540253081173133,0,0,-0.01540253081173133,-2144.586405248892,-1956.9370301097865) ">
    <path stroke="null" id="svg_6" d="m154386.480469,-131556.949707c-60,-30 -132,-102 -221,-222c-43,-57 -111,-132 -158,-174c-46,-40 -95,-92 -110,-116c-15,-23 -33,-40 -39,-38c-15,5 -31,-31 -67,-145c-32,-102 -53,-137 -73,-121c-7,7 -15,10 -16,8c-2,-2 -16,-25 -31,-51c-29,-53 -51,-68 -93,-68c-42,0 -141,-39 -314,-123c-84,-41 -178,-85 -206,-97c-47,-20 -69,-40 -44,-40c21,0 -179,-190 -232,-219c-68,-39 -79,-53 -128,-175c-41,-101 -37,-127 11,-81c43,41 37,22 -17,-53c-26,-37 -61,-104 -78,-151c-30,-83 -148,-283 -221,-374c-83,-105 -114,-189 -46,-127c18,16 35,30 37,30c2,0 -11,-33 -30,-72c-18,-40 -40,-100 -49,-134c-9,-33 -29,-93 -46,-133c-21,-51 -34,-109 -45,-194c-26,-209 -36,-260 -65,-327c-15,-36 -30,-77 -34,-92c-10,-44 15,-34 52,19c37,54 37,53 16,-58c-10,-58 -26,-101 -48,-139c-52,-85 -106,-197 -99,-204c4,-4 24,10 45,31c21,20 38,35 38,32c0,-29 -45,-127 -81,-179c-88,-125 -115,-197 -53,-139l26,24l-20,-40c-11,-22 -29,-75 -41,-118c-12,-43 -33,-102 -48,-130c-62,-124 -81,-213 -38,-177c22,18 18,5 -10,-40c-31,-50 -51,-62 -149,-95c-104,-35 -208,-37 -284,-6c-29,11 -67,21 -85,21c-18,0 -57,7 -87,15c-71,19 -73,19 -65,-6c7,-21 5,-22 -62,-17c-57,4 -98,18 -239,77c-93,40 -189,84 -213,97c-59,33 -93,30 -59,-4c16,-16 7,-15 -39,3c-58,22 -148,35 -239,35c-89,0 -184,17 -277,49c-92,32 -408,114 -414,107c-3,-3 0,-13 8,-22c13,-16 8,-17 -71,-10c-47,4 -143,23 -215,42c-152,41 -291,64 -391,64c-125,0 -278,51 -367,122c-45,35 -59,29 -34,-14c10,-17 16,-32 15,-34c-2,-1 -47,13 -101,31c-71,25 -97,31 -97,21c0,-8 10,-20 22,-29l23,-15l-28,-7c-16,-4 -68,-2 -116,4c-48,6 -130,11 -182,11c-168,1 -259,18 -619,118c-142,40 -176,46 -178,35c-3,-11 -12,-13 -35,-9c-18,3 -135,11 -262,16c-126,5 -243,11 -260,12c-20,2 -29,-1 -27,-9c1,-10 -21,-13 -87,-13c-53,0 -123,-8 -173,-19c-73,-17 -199,-36 -407,-59c-74,-8 -90,-26 -34,-37l38,-8l-33,-14c-18,-7 -88,-18 -155,-23c-67,-6 -146,-16 -176,-23c-58,-13 -81,-37 -37,-37c14,0 26,-4 26,-9c0,-13 -35,-21 -120,-30c-85,-9 -170,-37 -170,-57c0,-7 10,-14 23,-16c13,-3 -1,-9 -38,-16c-33,-7 -80,-17 -105,-23c-90,-20 -184,-97 -438,-362c-15,-16 -59,-59 -98,-95c-54,-52 -73,-77 -83,-112c-15,-50 -70,-163 -138,-284l-45,-79l22,-17l23,-17l-21,-64c-32,-96 -41,-175 -45,-381c-2,-142 0,-188 9,-188c7,0 14,6 17,13c2,6 8,8 13,4c5,-5 8,-113 6,-240c-3,-213 -1,-243 22,-368c31,-166 46,-215 66,-212c11,2 23,-19 39,-65c34,-98 106,-244 131,-267c21,-19 22,-19 36,-1c23,33 27,11 15,-96c-20,-173 -41,-289 -72,-383c-31,-93 -64,-278 -55,-302c3,-8 10,-11 16,-8c18,11 19,-205 0,-340c-24,-176 -32,-212 -60,-270c-34,-70 -65,-224 -48,-240c7,-7 12,-6 15,2c7,21 23,15 23,-8c0,-11 11,-39 24,-62c33,-57 46,-137 46,-288c0,-88 -5,-140 -15,-170c-9,-24 -23,-74 -31,-111c-15,-65 -13,-94 7,-83c5,4 6,-8 1,-27c-13,-59 -5,-111 29,-206c28,-75 37,-92 52,-88c21,5 21,-8 6,-105c-15,-90 1,-193 41,-264c27,-49 78,-196 139,-401c26,-91 61,-302 61,-374c0,-32 18,-50 30,-30c10,17 13,6 41,-147c16,-89 28,-133 36,-133c7,0 13,6 14,13c1,19 49,-85 49,-107c0,-11 24,-72 54,-136c68,-147 75,-173 86,-328c11,-175 22,-199 122,-255c48,-28 59,-47 73,-132c14,-80 63,-153 125,-185c53,-27 235,-71 322,-77c96,-7 102,1 69,95c-12,35 -20,66 -17,69c2,3 27,-2 55,-12c28,-9 63,-15 78,-13c23,2 29,8 31,34c2,24 -13,56 -69,145c-39,63 -85,128 -100,144c-20,21 -29,41 -29,64c0,53 -21,110 -53,144c-51,55 -73,88 -164,252c-72,129 -92,174 -103,230c-16,85 -63,224 -97,285c-29,54 -87,301 -143,610c-24,135 -47,579 -35,686l8,69l17,-100c10,-55 25,-131 34,-170c10,-38 21,-133 27,-210c12,-170 17,-205 29,-205c5,0 13,12 16,26c14,56 35,-17 90,-321c86,-479 177,-788 283,-964c24,-39 45,-90 51,-121c14,-75 58,-160 98,-186c57,-39 262,-92 371,-97c71,-3 83,14 57,80c-10,26 -21,58 -23,70c-5,22 -5,22 40,7c25,-8 63,-14 84,-12c34,3 38,6 41,33c2,22 -8,47 -36,90c-22,33 -61,93 -86,134c-26,40 -56,75 -66,78c-11,3 -20,12 -20,20c0,29 -52,118 -149,258c-125,178 -141,211 -181,375c-19,74 -41,153 -51,175c-49,114 -60,1250 -13,1427c15,59 24,74 80,129c35,35 64,58 64,51c0,-7 4,-12 9,-12c22,0 112,83 155,144c47,65 61,80 50,51c-14,-36 29,-10 82,50c32,36 78,77 102,91c25,15 62,42 83,61l39,35l-6,-31c-7,-35 5,-41 24,-10c32,51 70,137 77,173c3,21 11,50 17,65l10,26l9,-23c11,-29 29,-20 29,14c0,37 24,86 59,119l31,29l33,-19c17,-10 74,-49 125,-87c84,-62 112,-78 112,-63c0,3 -9,23 -20,45c-27,54 -26,56 18,22c54,-43 159,-93 297,-142c136,-48 352,-148 401,-185c44,-34 50,-20 11,28c-25,32 -28,39 -12,33c57,-24 115,-36 214,-45c130,-12 155,-22 239,-90c35,-28 68,-49 73,-45c6,3 -1,25 -16,50c-14,24 -24,44 -21,44c2,0 44,-11 93,-24c130,-34 221,-73 287,-122c54,-40 86,-54 86,-38c0,3 -14,24 -31,45c-17,21 -28,39 -25,39c18,0 125,-55 166,-85c48,-35 186,-80 196,-64c2,4 -12,19 -33,33c-60,41 -18,30 78,-21c80,-42 122,-52 91,-21c-24,24 -11,29 21,9c38,-23 49,-19 41,15c-5,21 -3,24 21,24c26,0 27,-1 22,-47c-2,-27 -8,-59 -12,-72c-8,-22 -6,-23 19,-17l26,7l-16,-38c-33,-73 -74,-205 -67,-216c4,-7 28,13 61,49l54,59l-5,-51c-3,-28 -22,-99 -41,-158c-27,-80 -36,-122 -35,-169c2,-117 20,-150 51,-100l17,28l1,-30c2,-43 24,-100 40,-100c7,0 19,16 26,35c12,33 13,33 13,8c1,-41 19,-43 42,-3c12,20 23,35 24,33c2,-2 -1,-23 -5,-48c-5,-25 -9,-75 -10,-112c0,-37 -4,-78 -10,-92c-18,-49 9,-37 37,16l28,53l3,-114c2,-80 -2,-129 -13,-166c-18,-63 -18,-65 -5,-65c5,0 26,30 45,68l36,67l-6,-50c-3,-27 -8,-62 -11,-77c-11,-47 9,-31 48,40l37,67l2,-45c2,-25 1,-64 0,-87c-3,-49 10,-55 40,-20l18,22l1,-46c0,-25 -12,-103 -26,-174c-20,-97 -23,-129 -14,-135c10,-6 9,-32 -1,-116c-17,-134 -17,-130 -1,-126c16,3 12,-34 -19,-163c-20,-87 -25,-175 -9,-175c6,0 10,-25 10,-55c0,-66 -41,-393 -76,-610c-29,-177 -27,-229 8,-322c17,-46 22,-81 22,-165c1,-99 3,-111 33,-170c17,-34 37,-92 43,-127c14,-78 50,-152 85,-175c36,-24 215,-82 317,-103c83,-16 89,-16 105,0c16,16 16,20 -1,74c-9,32 -20,66 -22,75c-5,16 -1,16 52,-2c68,-24 97,-25 114,-5c21,26 3,67 -117,263c-37,60 -45,82 -47,130c-2,41 -19,99 -61,207l-58,150l-4,179c-9,358 53,1035 117,1286c13,50 20,111 20,170c0,61 5,100 15,120c8,16 27,96 42,177c28,154 63,256 85,248c8,-3 34,36 71,105c66,124 76,130 133,77c33,-30 35,-36 40,-112c7,-104 11,-116 30,-91c12,18 13,1 9,-135c-2,-84 -11,-180 -19,-212c-13,-54 -8,-76 13,-62c6,3 8,-8 6,-27c-2,-18 -7,-143 -10,-278c-6,-248 -10,-289 -39,-415c-20,-91 -33,-255 -19,-255c6,0 12,-54 16,-137c3,-96 11,-162 26,-218c12,-44 26,-104 31,-134c5,-30 14,-57 19,-60c5,-3 13,-54 19,-112c11,-116 27,-157 86,-228c20,-24 36,-51 36,-60c0,-32 51,-120 90,-155c51,-46 85,-54 270,-67c163,-12 204,-7 217,28c4,9 0,28 -9,42c-8,14 -25,43 -37,63l-22,37l75,-6c80,-6 106,3 106,38c0,27 -190,240 -238,267c-30,17 -42,30 -42,46c0,28 -45,97 -82,125c-29,23 -122,192 -138,250c-18,69 -42,442 -36,556c10,185 37,456 52,530c7,39 26,93 40,120c23,43 28,67 34,175c9,147 15,173 40,165c14,-4 20,4 29,42c7,26 28,72 47,103c31,51 104,243 104,275c0,8 5,17 11,21c7,4 10,-2 8,-17c-8,-59 17,-22 91,131c60,126 83,185 96,252c9,48 21,85 25,82c14,-8 78,48 94,83c11,23 14,51 10,104l-5,73l23,-22c13,-12 27,-22 31,-22c5,0 6,39 2,88c-13,177 -10,224 15,272l24,45l3,-37c2,-21 6,-38 11,-38c4,0 19,26 35,57c21,43 30,53 37,42c5,-8 9,-22 9,-31c0,-10 5,-18 10,-18c6,0 10,23 10,50c0,66 21,115 58,134c16,8 53,34 82,57l54,42l-38,-67c-22,-39 -34,-72 -29,-77c5,-5 53,35 112,94c58,56 101,93 96,82c-14,-36 -18,-65 -8,-65c20,0 164,134 194,181c17,27 33,49 36,49c3,0 3,-43 1,-95c-3,-52 -2,-95 1,-95c3,1 33,51 66,112c82,152 81,150 93,108c7,-27 5,-46 -9,-85c-22,-59 -22,-55 -6,-55c14,0 49,50 94,135l32,60l1,-53c0,-75 19,-63 47,29c19,63 29,80 70,116c26,23 48,41 50,39c2,-2 -1,-15 -6,-29c-14,-36 4,-45 29,-15c11,13 37,49 57,82l37,58l9,-28c4,-16 5,-48 3,-71c-3,-24 -2,-43 3,-43c10,0 47,95 57,144c3,20 10,36 14,36c11,0 46,-49 54,-77c17,-53 32,-11 39,105l2,44l35,-24c19,-13 44,-38 55,-55c11,-18 24,-32 29,-33c9,0 1,86 -11,117c-5,14 0,13 31,-6c20,-13 40,-20 44,-17c3,4 -1,27 -10,52c-17,49 -14,52 22,24c23,-18 50,-26 50,-16c0,3 -10,21 -21,41c-23,39 -23,93 1,150l13,30l10,-42c14,-60 33,-55 40,12c5,49 41,135 57,135c3,0 12,-16 19,-35c7,-19 19,-35 27,-35c13,0 17,25 18,133c1,15 3,27 6,27c3,0 23,-14 44,-30c43,-33 68,-30 39,4c-47,53 -67,105 -57,153l6,29l29,-27c18,-17 51,-32 84,-40c55,-12 84,-6 53,12c-50,28 -78,62 -78,94c0,47 15,51 40,10c12,-19 25,-35 29,-35c4,0 6,60 5,133l-3,132l24,-30c43,-52 42,-36 -1,195l-7,35l34,-32c42,-38 136,-85 145,-71c4,5 -13,30 -37,54c-39,40 -44,50 -49,104c-3,33 -4,60 -1,60c3,0 20,-14 38,-32c18,-17 36,-28 40,-24c6,6 -13,118 -33,194c-6,21 -5,22 20,11c14,-7 29,-9 33,-6c3,4 -6,38 -21,76c-15,38 -30,86 -33,107l-6,39l41,-37c38,-34 62,-47 62,-33c0,2 -9,19 -20,37c-11,18 -20,47 -20,63c0,17 -12,57 -25,90c-14,33 -25,61 -25,61c0,1 33,-9 73,-21c41,-14 76,-20 81,-15c5,5 -11,27 -40,53l-48,44l67,13c44,8 67,17 67,26c0,8 -6,14 -14,14c-8,0 -27,5 -43,11c-27,10 -27,11 -7,19c11,5 46,11 77,15c32,4 57,10 57,14c0,4 -26,20 -57,35c-32,15 -67,39 -77,53l-19,26l36,-7c45,-8 50,9 12,44c-14,13 -25,27 -25,30c0,4 11,5 25,2c29,-5 33,12 9,39c-23,26 -43,88 -43,134l1,40l14,-32c22,-50 38,-42 29,15c-7,48 -8,342 -1,349c2,3 14,-14 27,-36c12,-23 26,-41 31,-41c13,0 10,30 -14,136c-16,74 -21,135 -22,241l-1,142l22,-27c11,-15 25,-24 29,-19c4,4 -3,51 -16,105c-25,102 -28,216 -12,437l7,90l18,-52c10,-29 23,-53 28,-53c5,0 8,49 6,113c-1,61 -1,193 1,291l2,179l24,-22c14,-13 29,-20 34,-17c13,8 -19,140 -64,269c-61,177 -84,281 -84,391c0,85 2,97 15,86c27,-22 31,-1 17,87c-17,106 -7,156 39,202c29,29 32,30 58,17c15,-8 33,-22 40,-30c20,-24 41,-19 41,9c0,29 9,30 65,11c22,-8 57,-17 79,-21c36,-7 38,-7 31,15c-7,23 -7,23 56,16c167,-17 216,-19 224,-6c4,7 2,16 -6,21c-18,11 -15,13 76,42c118,38 135,40 216,21c106,-24 185,-63 257,-127c93,-84 106,-89 229,-85c96,3 106,5 124,27c11,14 19,39 19,62c0,30 4,39 18,39c28,0 80,37 96,68c12,24 13,56 6,198c-9,182 -19,225 -69,297c-49,70 -102,114 -183,151c-42,19 -161,85 -265,147c-103,61 -223,132 -266,158c-44,25 -120,84 -170,129c-75,69 -113,94 -207,140c-63,30 -116,56 -117,57c-1,0 13,75 32,167c23,116 44,190 69,246c20,44 36,82 36,86c0,4 24,68 54,144c60,152 82,231 73,256c-10,25 -60,19 -105,-13c-44,-33 -159,-187 -217,-293c-20,-38 -41,-68 -46,-68c-4,0 -16,-26 -25,-57c-26,-90 -34,-103 -128,-209c-21,-25 -41,-43 -42,-41c-2,2 7,30 20,63c14,32 43,129 66,214c38,142 46,162 99,241c32,47 66,108 77,134l18,48l-23,18c-30,24 -46,24 -100,-4z"/>
   </g>
  </g>
 </g>
</svg>
